<svg width="20" height="20" viewBox="0 0 20 20" fill="none" xmlns="http://www.w3.org/2000/svg">
<path d="M9.99978 19.0756C9.91575 19.0756 9.74768 19.0756 9.66365 18.9916C9.49558 18.8235 9.49558 18.5714 9.66365 18.4034L18.067 10L9.66365 1.59664C9.49558 1.42857 9.49558 1.17647 9.66365 1.00841C9.83172 0.840338 10.0838 0.840338 10.2519 1.00841L18.9073 9.66387C18.9914 9.7479 18.9914 9.83193 18.9914 10C18.9914 10.1681 18.9073 10.2521 18.9073 10.3361L10.2519 18.9916C10.1678 19.0756 10.0838 19.0756 9.99978 19.0756Z" fill="white"/>
<path d="M18.6555 10.4202H1.2605C1.0084 10.4202 0.840332 10.2521 0.840332 10C0.840332 9.7479 1.0084 9.57983 1.2605 9.57983H18.6555C18.9076 9.57983 19.0756 9.7479 19.0756 10C19.0756 10.2521 18.9076 10.4202 18.6555 10.4202Z" fill="white"/>
</svg>
