<svg width="70" height="54" viewBox="0 0 70 54" fill="none" xmlns="http://www.w3.org/2000/svg">
<path d="M64.1389 17.5306L65.2266 16.4427C66.1533 15.516 66.1533 14.0134 65.2266 13.0869C64.2996 12.1604 62.7975 12.1604 61.8708 13.0869L60.756 14.202L58.6147 5.63724C57.8462 2.56408 54.7629 0.156738 51.5954 0.156738H18.4043C15.2369 0.156738 12.1536 2.56408 11.385 5.63748L9.24401 14.202L8.12919 13.0869C7.20222 12.1604 5.70017 12.1604 4.77343 13.0869C3.8467 14.0137 3.8467 15.5162 4.77343 16.4427L5.86115 17.5306C2.39367 19.2304 0 22.796 0 26.9109V35.2456C0 38.6094 1.60057 41.6045 4.07815 43.5153V47.6738C4.07815 51.0757 6.84562 53.8432 10.2478 53.8432H14.89C18.2919 53.8432 21.0594 51.0757 21.0594 47.6738V45.6864H48.9404V47.6738C48.9404 51.0757 51.7078 53.8432 55.1098 53.8432H59.752C63.1539 53.8432 65.9216 51.0757 65.9216 47.6738V43.5157C68.3992 41.605 70 38.6098 70 35.2456V26.9109C70 22.796 67.6063 19.2304 64.1389 17.5306ZM13.7523 15.7352L15.989 6.78859C16.2313 5.81896 17.4053 4.90236 18.4043 4.90236H51.5952C52.5943 4.90236 53.7682 5.81896 54.0105 6.78859L56.2475 15.7354C56.3092 15.9836 56.297 16.1948 56.2142 16.3008C56.131 16.4069 55.9291 16.4703 55.6736 16.4703H14.326C14.0705 16.4703 13.8685 16.4069 13.7853 16.3008C13.7028 16.1948 13.6905 15.9836 13.7523 15.7352ZM4.74586 26.9109C4.74586 23.771 7.30074 21.2161 10.4406 21.2161H59.5594C62.6993 21.2161 65.2541 23.771 65.2541 26.9109V35.2456C65.2541 38.3857 62.6993 40.9406 59.5594 40.9406H10.4406C7.30074 40.9406 4.74586 38.3857 4.74586 35.2456V26.9109ZM16.3135 47.6738C16.3135 48.4452 15.6614 49.0973 14.89 49.0973H10.2476C9.47593 49.0973 8.82377 48.4452 8.82377 47.6738V45.5608C9.35101 45.6431 9.8905 45.6864 10.4404 45.6864H16.3133V47.6738H16.3135ZM61.1758 47.6738C61.1758 48.4452 60.5236 49.0973 59.752 49.0973H55.1098C54.3384 49.0973 53.6862 48.4452 53.6862 47.6738V45.6864H59.5596C60.1093 45.6864 60.6488 45.6428 61.176 45.5608V47.6738H61.1758Z" fill="#5B6770"/>
<path d="M26.8429 33.4513H43.1571C44.4676 33.4513 45.5298 32.3888 45.5298 31.0784C45.5298 29.7679 44.4674 28.7057 43.1571 28.7057H26.8429C25.5325 28.7057 24.4702 29.7682 24.4702 31.0784C24.47 32.3888 25.5325 33.4513 26.8429 33.4513Z" fill="#5B6770"/>
<path d="M14.6078 37.5297C18.1651 37.5297 21.0591 34.6356 21.0591 31.0783C21.0591 27.5211 18.1651 24.6273 14.6078 24.6273C11.0505 24.6273 8.15674 27.5211 8.15674 31.0783C8.1565 34.6354 11.0505 37.5297 14.6078 37.5297ZM14.6078 29.3726C15.5482 29.3726 16.3133 30.1379 16.3133 31.0781C16.3133 32.0185 15.5482 32.7836 14.6078 32.7836C13.6676 32.7836 12.9024 32.0185 12.9024 31.0781C12.9021 30.1379 13.6674 29.3726 14.6078 29.3726Z" fill="#5B6770"/>
<path d="M55.3917 37.5297C58.949 37.5297 61.8428 34.6356 61.8428 31.0783C61.8428 27.5211 58.949 24.6273 55.3917 24.6273C51.8345 24.6273 48.9404 27.5211 48.9404 31.0783C48.9402 34.6354 51.8345 37.5297 55.3917 37.5297ZM55.3917 29.3726C56.3319 29.3726 57.0972 30.1379 57.0972 31.0781C57.0972 32.0185 56.3319 32.7836 55.3917 32.7836C54.4513 32.7836 53.6863 32.0185 53.6863 31.0781C53.6861 30.1379 54.4511 29.3726 55.3917 29.3726Z" fill="#5B6770"/>
</svg>
