<svg width="70" height="70" viewBox="0 0 70 70" fill="none" xmlns="http://www.w3.org/2000/svg">
<path d="M35 0C15.6565 0 0 15.6539 0 35C0 54.3434 15.6539 70 35 70C54.3434 70 70 54.3461 70 35C70 15.6566 54.3461 0 35 0ZM35 65.3333C17.9236 65.3333 4.66667 52.0792 4.66667 35C4.66667 17.9236 17.9208 4.66667 35 4.66667C52.0764 4.66667 65.3333 17.9208 65.3333 35C65.3333 52.0764 52.0792 65.3333 35 65.3333Z" fill="#5B6770"/>
<path d="M35 13.6719C23.2012 13.6719 13.6719 23.2742 13.6719 35C13.6719 46.6889 23.1643 56.3281 35 56.3281C46.8155 56.3281 56.3281 46.7123 56.3281 35C56.3281 23.2835 46.8048 13.6719 35 13.6719ZM37.0508 17.8961C41.8348 18.4661 46.0235 21.0037 48.7812 24.6754L40.3584 29.5384C39.4473 28.6444 38.3145 27.9769 37.0508 27.625V17.8961ZM32.9492 17.8959V27.6248C31.6857 27.9766 30.5527 28.6442 29.6416 29.5382L21.2187 24.6754C23.9765 21.0037 28.1652 18.4661 32.9492 17.8959ZM19.1629 41.7756C18.2693 39.6948 17.7734 37.4043 17.7734 35C17.7734 32.5957 18.2693 30.3052 19.1629 28.2245L27.5856 33.0874C27.4278 33.6988 27.3438 34.3398 27.3438 35C27.3438 35.6602 27.4278 36.3012 27.5856 36.9127L19.1629 41.7756ZM32.9492 52.1039C28.1652 51.5339 23.9765 48.9963 21.2187 45.3246L29.6416 40.4616C30.5527 41.3556 31.6855 42.0232 32.9492 42.375V52.1039ZM31.4453 35C31.4453 33.0399 33.04 31.4453 35 31.4453C36.9601 31.4453 38.5547 33.0399 38.5547 35C38.5547 36.9601 36.9601 38.5547 35 38.5547C33.04 38.5547 31.4453 36.9601 31.4453 35ZM37.0508 52.1041V42.3752C38.3145 42.0234 39.4473 41.3558 40.3584 40.4618L48.7812 45.3247C46.0235 48.9963 41.8348 51.5339 37.0508 52.1041ZM42.4144 36.9127C42.5723 36.3012 42.6562 35.6602 42.6562 35C42.6562 34.3398 42.5722 33.6988 42.4144 33.0873L50.8371 28.2245C51.7307 30.3052 52.2266 32.5957 52.2266 35C52.2266 37.4043 51.7307 39.6948 50.8371 41.7755L42.4144 36.9127Z" fill="#5B6770"/>
</svg>
