<svg xmlns="http://www.w3.org/2000/svg" xmlns:xlink="http://www.w3.org/1999/xlink" version="1.1" id="Layer_1" x="0px" y="0px" viewBox="0 0 23.8 23.8" style="enable-background:new 0 0 23.8 23.8;" xml:space="preserve">
<style type="text/css">
	.st0{fill:#EC6B23;}
</style>
<path class="st0" d="M11.9,22.7c-0.1,0-0.3,0-0.4-0.1c-0.2-0.2-0.2-0.5,0-0.7l10-10l-10-10c-0.2-0.2-0.2-0.5,0-0.7s0.5-0.2,0.7,0  l10.3,10.3c0.1,0.1,0.1,0.2,0.1,0.4s-0.1,0.3-0.1,0.4L12.2,22.6C12.1,22.7,12,22.7,11.9,22.7z"/>
<path class="st0" d="M22.2,12.4H1.5c-0.3,0-0.5-0.2-0.5-0.5s0.2-0.5,0.5-0.5h20.7c0.3,0,0.5,0.2,0.5,0.5S22.5,12.4,22.2,12.4z"/>
</svg>