<svg width="60" height="70" viewBox="0 0 60 70" fill="none" xmlns="http://www.w3.org/2000/svg">
<path d="M57.8454 11.3348L31.0485 0.209026C30.3772 -0.0696069 29.6227 -0.0697436 28.9515 0.209026L2.15463 11.3348C1.13402 11.7586 0.46875 12.755 0.46875 13.8601V27.385C0.46875 46.0079 11.7247 62.7596 28.9667 69.7972C29.6289 70.0675 30.3709 70.0675 31.0333 69.7972C48.2751 62.7598 59.5312 46.008 59.5312 27.385V13.8601C59.5312 12.755 58.8661 11.7586 57.8454 11.3348ZM54.0625 27.385C54.0625 43.2164 44.7656 57.7902 30 64.2955C15.6289 57.9639 5.9375 43.6454 5.9375 27.385V15.6856L30 5.695L54.0625 15.6856V27.385ZM26.9777 36.6018L38.7306 24.849C39.7984 23.7813 41.5296 23.7811 42.5975 24.849C43.6654 25.9169 43.6653 27.6482 42.5974 28.716L28.9112 42.4022C27.8431 43.4703 26.1119 43.4698 25.0442 42.4022L17.4025 34.7605C16.3346 33.6925 16.3346 31.9613 17.4025 30.8935C18.4704 29.8257 20.2016 29.8256 21.2694 30.8935L26.9777 36.6018Z" fill="#5B6770"/>
</svg>
